<svg xmlns="http://www.w3.org/2000/svg" version="1.1" xmlns:xlink="http://www.w3.org/1999/xlink" xmlns:svgjs="http://svgjs.dev/svgjs" viewBox="0 0 800 800">
  <defs>
    <linearGradient id="line-fade-gradient" x1="0%" y1="0%" x2="0%" y2="100%">
      <stop offset="0%" stop-color="hsl(238, 82%, 13%)" stop-opacity="1"/>
      <stop offset="70%" stop-color="hsl(238, 82%, 13%)" stop-opacity="1"/>
      <stop offset="100%" stop-color="hsl(238, 82%, 13%)" stop-opacity="0"/>
    </linearGradient>
    <linearGradient x1="50%" y1="0%" x2="50%" y2="100%" id="ffflurry-grad" gradientTransform="rotate(270)">
      <stop stop-color="hsl(238, 82%, 13%)" stop-opacity="1" offset="0%"></stop>
      <stop stop-color="hsl(230, 55%, 50%)" stop-opacity="1" offset="45%"></stop>
      <stop stop-color="hsl(230, 55%, 70%)" stop-opacity="1" offset="100%"></stop>
    </linearGradient>
  </defs>
  <rect width="100%" height="100%" fill="hsl(238, 82%, 13%)"></rect>
  <g fill="url(#ffflurry-grad)">
    <rect width="509" height="3" x="60.5" y="341.5" rx="1.5" transform="rotate(45, 315, 343)" opacity="0.66" stroke="url(#line-fade-gradient)" stroke-width="3"></rect>
    <rect width="233" height="3" x="573.5" y="48.5" rx="1.5" transform="rotate(45, 690, 50)" opacity="0.97" stroke="url(#line-fade-gradient)" stroke-width="3"></rect>
    <rect width="180" height="3" x="611" y="384.5" rx="1.5" transform="rotate(45, 701, 386)" opacity="0.85" stroke="url(#line-fade-gradient)" stroke-width="3"></rect>
    <rect width="393" height="3" x="-50.5" y="262.5" rx="1.5" transform="rotate(45, 146, 264)" opacity="0.87" stroke="url(#line-fade-gradient)" stroke-width="3"></rect>
    <rect width="168" height="3" x="689" y="143.5" rx="1.5" transform="rotate(45, 773, 145)" opacity="0.30" stroke="url(#line-fade-gradient)" stroke-width="3"></rect>
    <rect width="482" height="3" x="525" y="457.5" rx="1.5" transform="rotate(45, 766, 459)" opacity="0.36" stroke="url(#line-fade-gradient)" stroke-width="3"></rect>
    <rect width="342" height="3" x="-132" y="256.5" rx="1.5" transform="rotate(45, 39, 258)" opacity="0.78" stroke="url(#line-fade-gradient)" stroke-width="3"></rect>
    <rect width="260" height="3" x="163" y="426.5" rx="1.5" transform="rotate(45, 293, 428)" opacity="0.78" stroke="url(#line-fade-gradient)" stroke-width="3"></rect>
    <rect width="64" height="3" x="738" y="365.5" rx="1.5" transform="rotate(45, 770, 367)" opacity="0.28" stroke="url(#line-fade-gradient)" stroke-width="3"></rect>
    <rect width="274" height="3" x="514" y="657.5" rx="1.5" transform="rotate(45, 651, 659)" opacity="0.36" stroke="url(#line-fade-gradient)" stroke-width="3"></rect>
    <rect width="422" height="3" x="355" y="435.5" rx="1.5" transform="rotate(45, 566, 437)" opacity="0.66" stroke="url(#line-fade-gradient)" stroke-width="3"></rect>
    <rect width="219" height="3" x="108.5" y="284.5" rx="1.5" transform="rotate(45, 218, 286)" opacity="0.56" stroke="url(#line-fade-gradient)" stroke-width="3"></rect>
    <rect width="577" height="3" x="-139.5" y="148.5" rx="1.5" transform="rotate(45, 149, 150)" opacity="0.08" stroke="url(#line-fade-gradient)" stroke-width="3"></rect>
    <rect width="284" height="3" x="-113" y="184.5" rx="1.5" transform="rotate(45, 29, 186)" opacity="0.35" stroke="url(#line-fade-gradient)" stroke-width="3"></rect>
    <rect width="451" height="3" x="541.5" y="35.5" rx="1.5" transform="rotate(45, 767, 37)" opacity="0.34" stroke="url(#line-fade-gradient)" stroke-width="3"></rect>
    <rect width="70" height="3" x="16" y="23.5" rx="1.5" transform="rotate(45, 51, 25)" opacity="0.71" stroke="url(#line-fade-gradient)" stroke-width="3"></rect>
    <rect width="580" height="3" x="-172" y="600.5" rx="1.5" transform="rotate(45, 118, 602)" opacity="0.46" stroke="url(#line-fade-gradient)" stroke-width="3"></rect>
    <rect width="259" height="3" x="469.5" y="131.5" rx="1.5" transform="rotate(45, 599, 133)" opacity="0.14" stroke="url(#line-fade-gradient)" stroke-width="3"></rect>
    <rect width="512" height="3" x="81" y="752.5" rx="1.5" transform="rotate(45, 337, 754)" opacity="0.74" stroke="url(#line-fade-gradient)" stroke-width="3"></rect>
    <rect width="287" height="3" x="209.5" y="218.5" rx="1.5" transform="rotate(45, 353, 220)" opacity="0.68" stroke="url(#line-fade-gradient)" stroke-width="3"></rect>
    <rect width="228" height="3" x="526" y="409.5" rx="1.5" transform="rotate(45, 640, 411)" opacity="0.74" stroke="url(#line-fade-gradient)" stroke-width="3"></rect>
    <rect width="227" height="3" x="-19.5" y="194.5" rx="1.5" transform="rotate(45, 94, 196)" opacity="0.43" stroke="url(#line-fade-gradient)" stroke-width="3"></rect>
    <rect width="54" height="3" x="465" y="395.5" rx="1.5" transform="rotate(45, 492, 397)" opacity="0.12" stroke="url(#line-fade-gradient)" stroke-width="3"></rect>
    <rect width="464" height="3" x="398" y="496.5" rx="1.5" transform="rotate(45, 630, 498)" opacity="0.66" stroke="url(#line-fade-gradient)" stroke-width="3"></rect>
    <rect width="549" height="3" x="297.5" y="49.5" rx="1.5" transform="rotate(45, 572, 51)" opacity="0.47" stroke="url(#line-fade-gradient)" stroke-width="3"></rect>
    <rect width="223" height="3" x="634.5" y="303.5" rx="1.5" transform="rotate(45, 746, 305)" opacity="0.35" stroke="url(#line-fade-gradient)" stroke-width="3"></rect>
    <rect width="704" height="3" x="-291" y="412.5" rx="1.5" transform="rotate(45, 61, 414)" opacity="0.40" stroke="url(#line-fade-gradient)" stroke-width="3"></rect>
    <rect width="496" height="3" x="199" y="513.5" rx="1.5" transform="rotate(45, 447, 515)" opacity="0.72" stroke="url(#line-fade-gradient)" stroke-width="3"></rect>
    <rect width="420" height="3" x="-93" y="604.5" rx="1.5" transform="rotate(45, 117, 606)" opacity="0.43" stroke="url(#line-fade-gradient)" stroke-width="3"></rect>
    <rect width="291" height="3" x="240.5" y="594.5" rx="1.5" transform="rotate(45, 386, 596)" opacity="0.40" stroke="url(#line-fade-gradient)" stroke-width="3"></rect>
    <rect width="121" height="3" x="479.5" y="559.5" rx="1.5" transform="rotate(45, 540, 561)" opacity="0.12" stroke="url(#line-fade-gradient)" stroke-width="3"></rect>
    <rect width="424" height="3" x="482" y="203.5" rx="1.5" transform="rotate(45, 694, 205)" opacity="0.20" stroke="url(#line-fade-gradient)" stroke-width="3"></rect>
    <rect width="249" height="3" x="528.5" y="485.5" rx="1.5" transform="rotate(45, 653, 487)" opacity="0.25" stroke="url(#line-fade-gradient)" stroke-width="3"></rect>
    <rect width="476" height="3" x="79" y="354.5" rx="1.5" transform="rotate(45, 317, 356)" opacity="0.25" stroke="url(#line-fade-gradient)" stroke-width="3"></rect>
    <rect width="239" height="3" x="437.5" y="661.5" rx="1.5" transform="rotate(45, 557, 663)" opacity="0.77" stroke="url(#line-fade-gradient)" stroke-width="3"></rect>
    <rect width="575" height="3" x="172.5" y="592.5" rx="1.5" transform="rotate(45, 460, 594)" opacity="0.82" stroke="url(#line-fade-gradient)" stroke-width="3"></rect>
    <rect width="262" height="3" x="214" y="671.5" rx="1.5" transform="rotate(45, 345, 673)" opacity="0.70" stroke="url(#line-fade-gradient)" stroke-width="3"></rect>
    <rect width="181" height="3" x="-61.5" y="358.5" rx="1.5" transform="rotate(45, 29, 360)" opacity="0.88" stroke="url(#line-fade-gradient)" stroke-width="3"></rect>
    <rect width="515" height="3" x="67.5" y="674.5" rx="1.5" transform="rotate(45, 325, 676)" opacity="0.82" stroke="url(#line-fade-gradient)" stroke-width="3"></rect>
    <rect width="119" height="3" x="201.5" y="674.5" rx="1.5" transform="rotate(45, 261, 676)" opacity="0.87" stroke="url(#line-fade-gradient)" stroke-width="3"></rect>
    <rect width="548" height="3" x="-151" y="678.5" rx="1.5" transform="rotate(45, 123, 680)" opacity="0.36" stroke="url(#line-fade-gradient)" stroke-width="3"></rect>
    <rect width="228" height="3" x="-158" y="515.5" rx="1.5" transform="rotate(45, -44, 517)" opacity="0.44" stroke="url(#line-fade-gradient)" stroke-width="3"></rect>
    <rect width="431" height="3" x="458.5" y="581.5" rx="1.5" transform="rotate(45, 674, 583)" opacity="0.55" stroke="url(#line-fade-gradient)" stroke-width="3"></rect>
  </g>
</svg>
